<?xml version="1.0" encoding="utf-8"?>
<!-- Svg Vector Icons : http://www.onlinewebfonts.com/icon -->
<!DOCTYPE svg PUBLIC "-//W3C//DTD SVG 1.1//EN" "http://www.w3.org/Graphics/SVG/1.1/DTD/svg11.dtd">
<svg version="1.1" xmlns="http://www.w3.org/2000/svg" xmlns:xlink="http://www.w3.org/1999/xlink" x="0px" y="0px" viewBox="0 0 256 256" enable-background="new 0 0 256 256" xml:space="preserve">
<metadata> Svg Vector Icons : http://www.onlinewebfonts.com/icon </metadata>
<g><g><g><path fill="#000000" d="M124.6,58.1c-2,0.6-4.2,1.6-4.9,2.2c-5.6,5.2-102.6,97.8-104.1,99.5c-4.2,4.7-6.3,11.7-5.4,18.3c1.3,9.1,8.6,17.2,18.1,19.8c6.2,1.7,14.7,0.3,20-3.3c1.4-0.9,18.2-16.7,37.4-35.1c31-29.7,35.1-33.5,37.5-34.5c3.4-1.4,8-1.6,10.5-0.4c0.9,0.5,17.5,16.1,36.8,34.7c19.4,18.6,36.1,34.4,37.3,35.2c12.2,8.1,29.3,3.5,35.8-9.6c3.9-8,2.9-17.7-2.5-24.4c-0.9-1.2-24.8-24.3-53-51.4c-37.3-35.9-52-49.6-53.7-50.6C130.9,57,128.9,56.8,124.6,58.1z"/></g></g></g>
</svg>